<svg display="none" xmlns="http://www.w3.org/2000/svg">
  <symbol id="instagram" viewBox="0 0 21 20" fill="currentColor">
    <path
      d="M12.0202 0C13.8202 0 14.2002 0.0199999 15.1202 0.0599999C16.1802 0.11 16.9102 0.28 17.5402 0.53C18.2002 0.78 18.7602 1.13 19.3102 1.68C19.8702 2.23 20.2102 2.79 20.4702 3.45C20.7202 4.08 20.8802 4.81 20.9302 5.88C20.9802 6.83 20.9902 7.2 20.9902 9.2V10.8C20.9902 12.8 20.9802 13.17 20.9302 14.12C20.9144 14.9468 20.7589 15.7651 20.4702 16.54C20.2102 17.2 19.8702 17.76 19.3202 18.31C18.7602 18.87 18.2002 19.21 17.5402 19.47C16.9102 19.72 16.1802 19.88 15.1202 19.93C14.1702 19.98 13.7902 19.99 11.7902 19.99H10.2002C8.20015 19.99 7.83015 19.98 6.87015 19.93C6.04333 19.9141 5.22515 19.7586 4.45015 19.47C3.78376 19.2195 3.17981 18.8271 2.68015 18.32C2.16796 17.8186 1.77199 17.211 1.52015 16.54C1.23177 15.765 1.07626 14.9468 1.06015 14.12C1.01113 13.0874 0.991123 12.0537 1.00015 11.02V8.97C1.00015 7.17 1.02015 6.79 1.06015 5.87C1.11015 4.81 1.28015 4.08 1.52015 3.45C1.78015 2.79 2.12015 2.23 2.68015 1.68C3.17533 1.16743 3.78059 0.774176 4.45015 0.53C5.22461 0.238206 6.04278 0.079305 6.87015 0.0599999C7.79015 0.0199999 8.17015 0 9.97015 0H12.0202ZM12.0402 1.8H9.95015C8.22015 1.8 7.85015 1.82 6.95015 1.86C5.98015 1.9 5.45015 2.06 5.10015 2.2C4.63015 2.38 4.30015 2.6 3.95015 2.95C3.60015 3.3 3.38015 3.63 3.20015 4.1C3.07015 4.45 2.90015 4.98 2.86015 5.96C2.82015 6.86 2.80015 7.22 2.80015 8.96V11.04C2.80015 12.78 2.82015 13.14 2.86015 14.04C2.90015 15.01 3.06015 15.54 3.20015 15.89C3.38015 16.36 3.60015 16.69 3.95015 17.04C4.30015 17.39 4.63015 17.61 5.10015 17.79C5.45015 17.93 5.98015 18.09 6.96015 18.13C7.93015 18.18 8.28015 18.19 10.4402 18.19H11.5502C13.7202 18.19 14.0602 18.18 15.0402 18.13C16.0102 18.09 16.5402 17.93 16.8902 17.79C17.3602 17.61 17.6902 17.39 18.0402 17.04C18.3902 16.69 18.6102 16.36 18.7902 15.89C18.9302 15.54 19.0902 15.01 19.1302 14.04C19.1802 13.06 19.1902 12.72 19.1902 10.55V9.45C19.1902 7.28 19.1802 6.93 19.1302 5.95C19.0902 4.98 18.9302 4.45 18.7902 4.1C18.6292 3.66543 18.373 3.27246 18.0402 2.95C17.7179 2.61692 17.3249 2.3606 16.8902 2.2C16.2971 1.98317 15.6716 1.86822 15.0402 1.86C14.0409 1.81227 13.0405 1.79226 12.0402 1.8ZM11.0002 4.86C12.362 4.86 13.6681 5.40101 14.6311 6.36401C15.5941 7.32701 16.1352 8.63311 16.1352 9.995C16.1352 11.3569 15.5941 12.663 14.6311 13.626C13.6681 14.589 12.362 15.13 11.0002 15.13C9.63827 15.13 8.33216 14.589 7.36916 13.626C6.40616 12.663 5.86515 11.3569 5.86515 9.995C5.86515 8.63311 6.40616 7.32701 7.36916 6.36401C8.33216 5.40101 9.63827 4.86 11.0002 4.86ZM11.0002 6.66C10.1157 6.66 9.26739 7.01136 8.64195 7.6368C8.01652 8.26223 7.66515 9.1105 7.66515 9.995C7.66515 10.8795 8.01652 11.7278 8.64195 12.3532C9.26739 12.9786 10.1157 13.33 11.0002 13.33C11.8847 13.33 12.7329 12.9786 13.3584 12.3532C13.9838 11.7278 14.3352 10.8795 14.3352 9.995C14.3352 9.1105 13.9838 8.26223 13.3584 7.6368C12.7329 7.01136 11.8847 6.66 11.0002 6.66ZM16.3302 3.46C16.6484 3.46 16.9536 3.58643 17.1787 3.81147C17.4037 4.03652 17.5302 4.34174 17.5302 4.66C17.5302 4.97826 17.4037 5.28348 17.1787 5.50853C16.9536 5.73357 16.6484 5.86 16.3302 5.86C16.0119 5.86 15.7067 5.73357 15.4816 5.50853C15.2566 5.28348 15.1302 4.97826 15.1302 4.66C15.1302 4.34174 15.2566 4.03652 15.4816 3.81147C15.7067 3.58643 16.0119 3.46 16.3302 3.46Z" />
  </symbol>

  <symbol id="facebook" viewBox="0 0 13 20" fill="none">
    <path
      d="M3.78 20L3.75 11.25H0V7.5H3.75V5C3.75 1.63 5.84 0 8.85 0C10.29 0 11.53 0.1 11.89 0.15V3.68H9.8C8.17 3.68 7.85 4.46 7.85 5.6V7.5H12.5L11.25 11.25H7.85V20H3.78Z" stroke="currentColor"/>
  </symbol>

  <symbol id="twitter" viewBox="0 0 24 24" fill="none">
    <path d="M23 3.01006C23 3.01006 20.9821 4.20217 19.86 4.54006C19.2577 3.84757 18.4573 3.35675 17.567 3.13398C16.6767 2.91122 15.7395 2.96725 14.8821 3.29451C14.0247 3.62177 13.2884 4.20446 12.773 4.96377C12.2575 5.72309 11.9877 6.62239 12 7.54006V8.54006C10.2426 8.58562 8.50127 8.19587 6.93101 7.4055C5.36074 6.61513 4.01032 5.44869 3 4.01006C3 4.01006 -1 13.0101 8 17.0101C5.94053 18.408 3.48716 19.109 1 19.0101C10 24.0101 21 19.0101 21 7.51006C20.9991 7.23151 20.9723 6.95365 20.92 6.68006C21.9406 5.67355 23 3.01006 23 3.01006Z" stroke="currentColor" stroke-linecap="round" stroke-linejoin="round"/>
  </symbol>
</svg>